<?xml version="1.0" encoding="UTF-8"?>
<svg id="Layer_1" data-name="Layer 1" xmlns="http://www.w3.org/2000/svg" xmlns:xlink="http://www.w3.org/1999/xlink" viewBox="0 0 252.5 285.05">
  <defs>
    <style>
      .cls-1 {
        fill: url(#linear-gradient);
      }

      .cls-2 {
        fill: url(#New_Gradient_Swatch_2);
      }

      .cls-3 {
        fill: url(#linear-gradient-3);
      }

      .cls-4 {
        fill: url(#linear-gradient-4);
      }

      .cls-5 {
        fill: url(#linear-gradient-2);
      }

      .cls-6 {
        fill: url(#linear-gradient-6);
      }

      .cls-7 {
        fill: url(#linear-gradient-7);
      }

      .cls-8 {
        fill: url(#linear-gradient-5);
      }
    </style>
    <linearGradient id="New_Gradient_Swatch_2" data-name="New Gradient Swatch 2" x1="0" y1="142.53" x2="252.5" y2="142.53" gradientUnits="userSpaceOnUse">
      <stop offset="0" stop-color="#05213f"/>
      <stop offset=".54" stop-color="#1d417b"/>
      <stop offset="1" stop-color="#05213f"/>
    </linearGradient>
    <linearGradient id="linear-gradient" x1="109.78" y1="160.77" x2="180.62" y2="160.77" gradientUnits="userSpaceOnUse">
      <stop offset="0" stop-color="#efbe23"/>
      <stop offset=".35" stop-color="#ebbb23"/>
      <stop offset=".67" stop-color="#dfb226"/>
      <stop offset=".99" stop-color="#cca32b"/>
      <stop offset="1" stop-color="#cca32c"/>
    </linearGradient>
    <linearGradient id="linear-gradient-2" x1="22.09" y1="93" x2="21.3" y2="204.65" gradientUnits="userSpaceOnUse">
      <stop offset="0" stop-color="#dab127"/>
      <stop offset=".04" stop-color="#dcb324"/>
      <stop offset=".35" stop-color="#efc112"/>
      <stop offset=".66" stop-color="#fbca08"/>
      <stop offset="1" stop-color="#ffcd05"/>
    </linearGradient>
    <linearGradient id="linear-gradient-3" x1="79.59" y1="9.04" x2="81.14" y2="239.69" gradientUnits="userSpaceOnUse">
      <stop offset="0" stop-color="#dab127"/>
      <stop offset="0" stop-color="#dab126"/>
      <stop offset=".34" stop-color="#eec014"/>
      <stop offset=".67" stop-color="#fac908"/>
      <stop offset="1" stop-color="#ffcd05"/>
    </linearGradient>
    <linearGradient id="linear-gradient-4" x1="130.9" y1="74.52" x2="131.69" y2="171.13" gradientUnits="userSpaceOnUse">
      <stop offset="0" stop-color="#dab127"/>
      <stop offset=".12" stop-color="#e6ba1b"/>
      <stop offset=".32" stop-color="#f4c50e"/>
      <stop offset=".56" stop-color="#fccb07"/>
      <stop offset="1" stop-color="#ffcd05"/>
    </linearGradient>
    <linearGradient id="linear-gradient-5" x1="0" y1="193.43" x2="43.08" y2="193.43" gradientUnits="userSpaceOnUse">
      <stop offset="0" stop-color="#9c802e"/>
      <stop offset="1" stop-color="#dab228"/>
    </linearGradient>
    <linearGradient id="linear-gradient-6" x1="58.5" y1="237.43" x2="102.09" y2="237.43" xlink:href="#linear-gradient-5"/>
    <linearGradient id="linear-gradient-7" x1="109.76" y1="168.67" x2="152.83" y2="168.67" xlink:href="#linear-gradient-5"/>
  </defs>
  <polygon class="cls-2" points="0 182.18 0 203.22 109.22 285.05 241.48 170.49 241.48 37.23 252.5 37.23 232.15 0 212.7 36.51 223.63 37.04 223.64 125.35 109.85 225.02 109.85 248.2 222.84 149.87 223.11 163.19 109.05 262.86 0 182.18"/>
  <polygon class="cls-1" points="163.53 122.69 163.53 144.91 109.78 191.06 109.78 213.62 180.62 152.78 180.62 107.92 163.53 122.69"/>
  <polygon class="cls-5" points="0 128.85 0 183.21 43.08 213.98 43.08 89.88 0 128.85"/>
  <polygon class="cls-3" points="102.09 2.8 58.5 44.34 58.5 225.46 102.09 257.54 102.09 2.8"/>
  <polygon class="cls-4" points="152.83 53.46 109.24 93.54 109.76 190.9 152.83 154.84 152.83 53.46"/>
  <polygon class="cls-8" points="43.08 203.65 0 172.88 0 183.21 43.08 213.98 43.08 203.65"/>
  <polygon class="cls-6" points="102.09 246.82 58.5 217.16 58.5 225.46 102.09 257.69 102.09 246.82"/>
  <polygon class="cls-7" points="152.83 146.28 109.76 181.67 109.76 191.05 152.83 154.84 152.83 146.28"/>
</svg>